<svg width="48" height="43" viewBox="0 0 48 43" fill="none" xmlns="http://www.w3.org/2000/svg">
<path fill-rule="evenodd" clip-rule="evenodd" d="M37.778 28.0372L21.0228 29.5829C20.5593 29.6718 20.1444 29.927 19.8558 30.3002L17.8896 33.2153C17.6707 34.6722 17.826 35.2518 18.6872 36.192L21.8475 37.7334C22.2841 37.9125 22.771 37.9258 23.2167 37.7712L38.4754 30.7245C40.7452 29.937 40.1373 27.5842 37.778 28.0372ZM22.5813 35.4212L32.2461 30.9578L21.6477 31.9354L20.2053 34.074C20.1992 34.1715 20.2 34.2294 20.2017 34.2598C20.2015 34.2594 20.202 34.2602 20.2017 34.2598L22.5813 35.4212ZM20.1836 34.229C20.1838 34.2291 20.1859 34.2324 20.1886 34.2388C20.1847 34.232 20.1834 34.2288 20.1836 34.229Z" fill="#282828"/>
<path fill-rule="evenodd" clip-rule="evenodd" d="M24 3.29172C12.07 3.29172 2.4 12.9572 2.4 24.8788C2.4 30.8024 4.78577 36.1669 8.65236 40.0687L6.94763 41.7581C2.65393 37.4252 0 31.4606 0 24.8788C0 11.6305 10.7458 0.891724 24 0.891724C37.2542 0.891724 48 11.6305 48 24.8788C48 31.64 45.1996 37.7495 40.6982 42.1082L39.0287 40.3841C43.0826 36.4585 45.6 30.9635 45.6 24.8788C45.6 12.9572 35.93 3.29172 24 3.29172Z" fill="#282828"/>
<path fill-rule="evenodd" clip-rule="evenodd" d="M22.8 9.29175V3.29176L25.2 3.29175V9.29175H22.8Z" fill="#282828"/>
<path fill-rule="evenodd" clip-rule="evenodd" d="M39.248 40.5734L34.8712 36.1968L36.5683 34.4998L40.945 38.8763L39.248 40.5734Z" fill="#282828"/>
<path fill-rule="evenodd" clip-rule="evenodd" d="M12.1457 13.5343L7.90283 9.29187L9.59987 7.59476L13.8427 11.8373L12.1457 13.5343Z" fill="#282828"/>
<path fill-rule="evenodd" clip-rule="evenodd" d="M40.4211 22.4917H46.4211V24.8917H40.4211V22.4917Z" fill="#282828"/>
<path fill-rule="evenodd" clip-rule="evenodd" d="M1.26318 22.4917H7.26322V24.8917H1.26318V22.4917Z" fill="#282828"/>
<path fill-rule="evenodd" clip-rule="evenodd" d="M34.303 11.6916L38.6799 7.31531L40.3769 9.01249L35.9999 13.3888L34.303 11.6916Z" fill="#282828"/>
<path fill-rule="evenodd" clip-rule="evenodd" d="M12.236 36.4396L7.8594 40.8164L6.16235 39.1193L10.5389 34.7426L12.236 36.4396Z" fill="#282828"/>
</svg>
