<svg width="48" height="49" viewBox="0 0 48 49" fill="none" xmlns="http://www.w3.org/2000/svg">
<path d="M34.4016 19.8641C36.8017 18.3272 38.4001 15.644 38.4001 12.5883C38.4001 7.82382 34.5236 3.9483 29.76 3.9483C28.9373 3.9483 28.1232 4.07118 27.3303 4.30638C25.5696 2.3259 23.0122 1.0683 20.16 1.0683C14.8666 1.0683 10.56 5.37486 10.56 10.6683C10.56 13.9621 12.2295 16.8737 14.7648 18.6027C9.08453 19.7701 4.80005 24.8081 4.80005 30.8283V47.1483H35.5201V43.3083H43.2001V31.7883C43.2001 26.1877 39.4916 21.4385 34.4016 19.8641ZM28.5332 5.9835C28.9383 5.9067 29.3482 5.8683 29.76 5.8683C33.4657 5.8683 36.48 8.88366 36.48 12.5883C36.48 16.2929 33.4657 19.3083 29.76 19.3083C28.442 19.3083 27.1728 18.9243 26.0871 18.2101C26.1015 18.1985 26.113 18.1861 26.1274 18.1745C26.9511 17.5179 27.6624 16.7297 28.2346 15.8408C28.2567 15.8062 28.2768 15.7697 28.2989 15.7352C28.4602 15.4769 28.61 15.211 28.7463 14.9365C28.7712 14.8856 28.7962 14.8337 28.8202 14.7829C28.945 14.5217 29.0573 14.2539 29.1591 13.9803C29.1821 13.9189 29.2052 13.8574 29.2272 13.795C29.3194 13.5301 29.3972 13.2603 29.4663 12.9848C29.4845 12.9137 29.5047 12.8427 29.521 12.7717C29.5815 12.5009 29.6285 12.2254 29.665 11.9461C29.6756 11.8712 29.6909 11.7982 29.6986 11.7233C29.737 11.3777 29.76 11.0254 29.76 10.6683C29.76 10.2881 29.7322 9.9147 29.689 9.54606C29.6756 9.4299 29.6535 9.31566 29.6362 9.1995C29.5959 8.9403 29.5479 8.68494 29.4874 8.43342C29.4586 8.31246 29.4279 8.19246 29.3943 8.07342C29.3156 7.79406 29.2244 7.52142 29.1216 7.25262C29.0938 7.18062 29.0717 7.1067 29.042 7.0347C28.8961 6.67854 28.729 6.3339 28.5428 6.00078C28.5389 5.99502 28.5361 5.98926 28.5332 5.9835ZM12.48 10.6683C12.48 6.43374 15.9255 2.9883 20.16 2.9883C22.538 2.9883 24.6653 4.07502 26.0756 5.77614L26.137 5.85582C26.184 5.91342 26.2253 5.97582 26.2704 6.03438C26.7581 6.67662 27.1316 7.37646 27.3946 8.1147C27.4128 8.16558 27.433 8.21454 27.4493 8.26542C27.5636 8.60814 27.649 8.96046 27.7133 9.31758C27.7268 9.39342 27.7373 9.47022 27.7488 9.54702C27.8026 9.91662 27.84 10.2891 27.84 10.6683C27.84 10.9832 27.816 11.2942 27.7776 11.6024C27.769 11.6753 27.7556 11.7464 27.745 11.8184C27.7056 12.0718 27.6567 12.3224 27.5924 12.5691C27.5789 12.6219 27.5665 12.6747 27.552 12.7275C27.3783 13.3448 27.1306 13.9371 26.8119 14.4901C26.8052 14.5006 26.7985 14.5112 26.7927 14.5217C26.6381 14.7867 26.4673 15.0411 26.282 15.2869C26.2647 15.3099 26.2474 15.3339 26.2301 15.3569C25.8384 15.8638 25.3825 16.3227 24.8698 16.7221C24.8429 16.7432 24.8151 16.7624 24.7882 16.7835C24.5444 16.9678 24.29 17.1406 24.0231 17.2961C23.9924 17.3144 23.9626 17.3336 23.9319 17.3518L23.7831 17.4382C22.7021 18.0171 21.4695 18.3483 20.16 18.3483C15.9255 18.3483 12.48 14.9029 12.48 10.6683ZM33.6 45.2283H6.72005V30.8283C6.72005 25.0059 11.4576 20.2683 17.28 20.2683H23.0401C24.4753 20.2683 25.8442 20.5582 27.0932 21.0795L27.2775 21.1621C27.384 21.2091 27.4868 21.2629 27.5914 21.3137C27.8765 21.4501 28.1521 21.5989 28.4208 21.7582C28.5428 21.8312 28.6666 21.9022 28.7857 21.98C28.9133 22.0625 29.0362 22.1499 29.16 22.2382C29.2877 22.3294 29.4135 22.4235 29.5373 22.5205C29.6477 22.6069 29.7572 22.6923 29.8637 22.7825C30.026 22.9208 30.1824 23.0648 30.3361 23.2126C30.457 23.3288 30.5751 23.4478 30.6903 23.5697C30.8199 23.707 30.9485 23.8453 31.0714 23.9883C31.1626 24.0958 31.25 24.2053 31.3364 24.3157C31.4343 24.4405 31.5284 24.5672 31.6215 24.6968C31.706 24.8139 31.7905 24.931 31.8701 25.052C31.9796 25.2181 32.0804 25.3899 32.1802 25.5617C32.2848 25.7422 32.3818 25.9256 32.4759 26.1118C32.545 26.2481 32.6122 26.3854 32.6756 26.5256C32.738 26.6638 32.7965 26.8049 32.8522 26.9461C32.9117 27.0968 32.9664 27.2494 33.0202 27.403C33.0644 27.5317 33.1124 27.6593 33.1517 27.7899C33.2324 28.0577 33.3024 28.3294 33.362 28.6049C33.385 28.7105 33.4013 28.819 33.4215 28.9256C33.4608 29.1387 33.4944 29.3537 33.5204 29.5707C33.5329 29.6725 33.5453 29.7742 33.554 29.8769C33.5799 30.1909 33.6 30.5077 33.6 30.8283V43.3083V45.2283ZM41.2801 41.3883H35.5201V30.8283C35.5201 30.3723 35.4922 29.923 35.4442 29.4795C35.4327 29.3729 35.4106 29.2693 35.3962 29.1637C35.3501 28.8229 35.2973 28.4849 35.2244 28.1537C35.1994 28.0424 35.1668 27.9339 35.1389 27.8235C35.0583 27.5009 34.97 27.1813 34.8653 26.8693C34.8289 26.7608 34.7866 26.6542 34.7472 26.5467C34.6349 26.2395 34.513 25.9381 34.3777 25.6424C34.3277 25.5349 34.2759 25.4293 34.2231 25.3227C34.081 25.0357 33.9293 24.7544 33.7661 24.4798C33.7037 24.3752 33.6413 24.2715 33.577 24.1678C33.4061 23.899 33.2247 23.6389 33.0346 23.3835C32.9626 23.2875 32.8935 23.1896 32.8196 23.0955C32.6103 22.8315 32.3885 22.58 32.16 22.3342C32.0928 22.2622 32.0314 22.1873 31.9623 22.1163C31.6589 21.8062 31.3431 21.5086 31.009 21.2312C36.698 21.3848 41.2801 26.0619 41.2801 31.7883V41.3883Z" fill="#282828"/>
</svg>
