<svg width="48" height="49" viewBox="0 0 48 49" fill="none" xmlns="http://www.w3.org/2000/svg">
<path fill-rule="evenodd" clip-rule="evenodd" d="M24 3.71525C12.3219 3.71525 2.82353 13.2136 2.82353 24.8917C2.82353 36.5699 12.3219 46.0682 24 46.0682C35.6781 46.0682 45.1765 36.5699 45.1765 24.8917C45.1765 13.2136 35.6781 3.71525 24 3.71525ZM24 48.8917C10.7661 48.8917 0 38.1256 0 24.8917C0 11.6578 10.7661 0.891724 24 0.891724C37.2339 0.891724 48 11.6578 48 24.8917C48 38.1256 37.2339 48.8917 24 48.8917ZM34.4476 34.4929L22.5888 25.5987V10.7752H25.4123V24.187L36.1418 32.2312L34.4476 34.4929Z" fill="#282828"/>
</svg>
